<svg width="300" height="41" viewBox="0 0 300 41" fill="none" xmlns="http://www.w3.org/2000/svg">
<rect width="300" height="41" rx="5" fill="white"/>
<rect x="75" y="1" width="151" height="39" rx="10" fill="white"/>
<rect width="17" height="17" transform="translate(90 12)" fill="white"/>
<path fill-rule="evenodd" clip-rule="evenodd" d="M106.32 20.6852C106.32 20.1076 106.268 19.5522 106.172 19.019H98.5V22.1699H102.884C102.695 23.1882 102.121 24.0509 101.258 24.6285V26.6724H103.891C105.431 25.2542 106.32 23.166 106.32 20.6852Z" fill="#4285F4"/>
<path fill-rule="evenodd" clip-rule="evenodd" d="M98.5001 28.6457C100.699 28.6457 102.543 27.9163 103.891 26.6722L101.259 24.6284C100.529 25.1171 99.5961 25.4059 98.5001 25.4059C96.3785 25.4059 94.5827 23.973 93.9422 22.0476H91.2207V24.1581C92.5611 26.8203 95.3158 28.6457 98.5001 28.6457Z" fill="#34A853"/>
<path fill-rule="evenodd" clip-rule="evenodd" d="M93.9419 22.0477C93.779 21.559 93.6864 21.0369 93.6864 20.5C93.6864 19.9631 93.779 19.4411 93.9419 18.9523V16.8418H91.2204C90.6687 17.9415 90.354 19.1856 90.354 20.5C90.354 21.8145 90.6687 23.0585 91.2204 24.1582L93.9419 22.0477Z" fill="#FBBC05"/>
<path fill-rule="evenodd" clip-rule="evenodd" d="M98.5001 15.594C99.6961 15.594 100.77 16.005 101.614 16.8122L103.95 14.4758C102.54 13.1614 100.696 12.3542 98.5001 12.3542C95.3158 12.3542 92.5611 14.1796 91.2207 16.8418L93.9422 18.9523C94.5827 17.0269 96.3785 15.594 98.5001 15.594Z" fill="#EA4335"/>
<path d="M132.642 15.7578C132.642 16.5462 132.621 17.2458 132.58 17.8564C132.544 18.4626 132.45 19.153 132.3 19.9277H134.063V20.9941H129.101V26.1758H127.788V20.9941H122.894V19.9277H130.987C131.151 19.1576 131.254 18.4671 131.295 17.8564C131.336 17.2412 131.356 16.5417 131.356 15.7578V15.7441H124.261V14.6777H132.642V15.7578ZM144.782 15.2383C144.782 15.8171 144.766 16.3434 144.734 16.8174C144.707 17.2913 144.636 17.8223 144.522 18.4102H146.204V19.4492H134.993V18.4102H143.217C143.331 17.8496 143.406 17.3392 143.442 16.8789C143.479 16.4186 143.497 15.9492 143.497 15.4707H136.401V14.4316H144.782V15.2383ZM144.796 23.7559H137.618V25H145.11V26.0391H136.319V22.7578H143.511V21.582H136.306V20.543H144.796V23.7559ZM158.304 24.6992H147.093V23.6055H152.028V21.459H148.46V17.5625H155.651V15.8398H148.433V14.7734H156.937V18.6016H149.745V20.3926H157.224V21.459H153.313V23.6055H158.304V24.6992ZM167.108 17.0293C167.104 17.7676 167.238 18.4945 167.512 19.21C167.79 19.9209 168.175 20.5544 168.667 21.1104C169.164 21.6663 169.724 22.0833 170.349 22.3613L169.569 23.3867C168.872 23.054 168.255 22.5641 167.717 21.917C167.179 21.2653 166.764 20.5179 166.473 19.6748C166.186 20.5817 165.766 21.3838 165.215 22.0811C164.668 22.7783 164.032 23.3047 163.308 23.6602L162.515 22.5664C163.148 22.2839 163.713 21.8555 164.21 21.2812C164.711 20.707 165.101 20.0485 165.379 19.3057C165.657 18.5583 165.796 17.7995 165.796 17.0293V14.9375H167.108V17.0293ZM172.755 26.1895H171.456V13.9121H172.755V26.1895ZM178.989 16.1133C178.989 16.6374 179.105 17.141 179.338 17.624C179.575 18.1071 179.914 18.5378 180.356 18.916C180.803 19.2943 181.332 19.5859 181.942 19.791L181.286 20.8027C180.603 20.5658 180.008 20.2194 179.502 19.7637C179.001 19.3079 178.616 18.777 178.347 18.1709C178.078 18.8363 177.681 19.4173 177.157 19.9141C176.638 20.4108 176.022 20.7845 175.312 21.0352L174.614 20.0234C175.243 19.8092 175.788 19.5016 176.248 19.1006C176.708 18.6995 177.062 18.2415 177.308 17.7266C177.558 17.207 177.686 16.6647 177.69 16.0996V15.7715H174.997V14.7188H181.628V15.7715H178.989V16.1133ZM184.335 17.0566H186.112V18.1504H184.335V21.2949H183.036V13.9121H184.335V17.0566ZM184.335 26.1621H183.036V22.9492H176.241V21.8965H184.335V26.1621ZM196.353 18.875H198.321V19.9551H196.353V26.1621H195.067V13.9121H196.353V18.875ZM194.001 16.8926H186.741V15.8262H189.763V14.0762H191.062V15.8262H194.001V16.8926ZM190.419 17.7949C190.998 17.7949 191.517 17.9157 191.978 18.1572C192.438 18.3988 192.8 18.736 193.064 19.1689C193.329 19.6019 193.463 20.0918 193.468 20.6387C193.463 21.1901 193.329 21.6823 193.064 22.1152C192.8 22.5482 192.438 22.8854 191.978 23.127C191.517 23.3685 190.998 23.4915 190.419 23.4961C189.836 23.4915 189.312 23.3685 188.847 23.127C188.386 22.8854 188.024 22.5482 187.76 22.1152C187.5 21.6823 187.37 21.1901 187.37 20.6387C187.37 20.0918 187.5 19.6019 187.76 19.1689C188.024 18.736 188.386 18.3988 188.847 18.1572C189.312 17.9157 189.836 17.7949 190.419 17.7949ZM190.419 18.8613C190.077 18.8613 189.767 18.9365 189.489 19.0869C189.211 19.2373 188.995 19.4469 188.84 19.7158C188.685 19.9847 188.61 20.2923 188.614 20.6387C188.61 20.9896 188.685 21.2995 188.84 21.5684C188.995 21.8372 189.209 22.0446 189.482 22.1904C189.76 22.3363 190.073 22.4069 190.419 22.4023C190.761 22.4069 191.068 22.3363 191.342 22.1904C191.62 22.0446 191.836 21.8372 191.991 21.5684C192.146 21.2995 192.224 20.9896 192.224 20.6387C192.224 20.2923 192.146 19.9847 191.991 19.7158C191.836 19.4469 191.62 19.2373 191.342 19.0869C191.068 18.9365 190.761 18.8613 190.419 18.8613ZM209.095 26.1621H207.782V13.9121H209.095V26.1621ZM205.444 15.2246C205.444 17.1204 204.991 18.8066 204.084 20.2832C203.182 21.7552 201.726 22.972 199.716 23.9336L199.032 22.8809C200.641 22.1152 201.86 21.1833 202.689 20.085C203.523 18.9867 204.004 17.7129 204.132 16.2637H199.62V15.2246H205.444Z" fill="black" fill-opacity="0.54"/>
</svg>
