<svg width="40" height="40" viewBox="0 0 40 40" fill="none" xmlns="http://www.w3.org/2000/svg">
<path d="M33.3334 16.6666C33.3334 26.6666 20.0001 36.6666 20.0001 36.6666C20.0001 36.6666 6.66675 26.6666 6.66675 16.6666C6.66675 13.1304 8.07151 9.73898 10.572 7.2385C13.0725 4.73801 16.4639 3.33325 20.0001 3.33325C23.5363 3.33325 26.9277 4.73801 29.4282 7.2385C31.9287 9.73898 33.3334 13.1304 33.3334 16.6666Z" fill="#E6007E"/>
<path d="M20.0001 17.9999C20.4603 17.9999 20.8334 17.6268 20.8334 17.1666C20.8334 16.7063 20.4603 16.3333 20.0001 16.3333C19.5398 16.3333 19.1667 16.7063 19.1667 17.1666C19.1667 17.6268 19.5398 17.9999 20.0001 17.9999Z" stroke="white" stroke-width="2" stroke-linecap="round" stroke-linejoin="round"/>
<path d="M19.1667 22.1666C19.1667 21.9456 19.2545 21.7336 19.4108 21.5773C19.5671 21.421 19.7791 21.3333 20.0001 21.3333C20.2211 21.3333 20.4331 21.421 20.5893 21.5773C20.7456 21.7336 20.8334 21.9456 20.8334 22.1666C20.8334 22.5833 20.5501 24.6666 20.4167 25.9166C20.4167 26.0271 20.3728 26.1331 20.2947 26.2112C20.2166 26.2894 20.1106 26.3333 20.0001 26.3333C19.8896 26.3333 19.7836 26.2894 19.7055 26.2112C19.6273 26.1331 19.5834 26.0271 19.5834 25.9166C19.4501 24.6666 19.1667 22.5833 19.1667 22.1666Z" stroke="white" stroke-width="2" stroke-linecap="round" stroke-linejoin="round"/>
<path d="M16.6666 19.6667C16.2023 19.0476 15.9196 18.3115 15.8501 17.5409C15.7806 16.7702 15.9271 15.9954 16.2731 15.3033C16.6192 14.6112 17.1511 14.0291 17.8094 13.6223C18.4676 13.2155 19.2261 13 19.9999 13C20.7737 13 21.5322 13.2155 22.1905 13.6223C22.8487 14.0291 23.3806 14.6112 23.7267 15.3033C24.0728 15.9954 24.2192 16.7702 24.1498 17.5409C24.0803 18.3115 23.7975 19.0476 23.3333 19.6667" stroke="white" stroke-width="2" stroke-linecap="round" stroke-linejoin="round"/>
<path d="M24.1667 23.4168C25.5045 22.5229 26.5195 21.2224 27.0615 19.7074C27.6036 18.1925 27.6441 16.5433 27.1771 15.0036C26.71 13.4638 25.7601 12.1151 24.4678 11.1566C23.1754 10.1981 21.609 9.68066 20 9.68066C18.391 9.68066 16.8246 10.1981 15.5322 11.1566C14.2399 12.1151 13.29 13.4638 12.8229 15.0036C12.3559 16.5433 12.3964 18.1925 12.9385 19.7074C13.4805 21.2224 14.4955 22.5229 15.8333 23.4168" stroke="white" stroke-width="2" stroke-linecap="round" stroke-linejoin="round"/>
</svg>
