<svg width="40" height="40" viewBox="0 0 40 40" fill="none" xmlns="http://www.w3.org/2000/svg">
<path d="M33.3333 16.6666C33.3333 26.6666 20 36.6666 20 36.6666C20 36.6666 6.66663 26.6666 6.66663 16.6666C6.66663 13.1304 8.07138 9.73898 10.5719 7.2385C13.0724 4.73801 16.4637 3.33325 20 3.33325C23.5362 3.33325 26.9276 4.73801 29.428 7.2385C31.9285 9.73898 33.3333 13.1304 33.3333 16.6666Z" fill="#0B4EEF"/>
<path d="M14.1666 18.8333C15.7244 17.3064 17.8187 16.4512 20 16.4512C22.1812 16.4512 24.2756 17.3064 25.8333 18.8333" stroke="white" stroke-width="2" stroke-linecap="round" stroke-linejoin="round"/>
<path d="M17.0834 21.7499C17.8622 20.9865 18.9094 20.5588 20 20.5588C21.0907 20.5588 22.1378 20.9865 22.9167 21.7499" stroke="white" stroke-width="2" stroke-linecap="round" stroke-linejoin="round"/>
<path d="M11.6666 15.35C13.9584 13.3002 16.9252 12.167 20 12.167C23.0747 12.167 26.0415 13.3002 28.3333 15.35" stroke="white" stroke-width="2" stroke-linecap="round" stroke-linejoin="round"/>
<path d="M20 24.6667H20.0083" stroke="white" stroke-width="2" stroke-linecap="round" stroke-linejoin="round"/>
</svg>
